<mxfile host="app.diagrams.net" agent="Mozilla/5.0 (Macintosh; Intel Mac OS X 10_15_7) AppleWebKit/537.36 (KHTML, like Gecko) Chrome/131.0.0.0 Safari/537.36" version="26.0.2">
  <diagram name="Page-1" id="Page-1">
    <mxGraphModel dx="794" dy="452" grid="1" gridSize="10" guides="1" tooltips="1" connect="1" arrows="1" fold="1" page="1" pageScale="1" pageWidth="1100" pageHeight="850" math="0" shadow="0">
      <root>
        <mxCell id="0" />
        <mxCell id="1" parent="0" />
        <UserObject label="" tags="Container" id="2">
          <mxCell style="vsdxID=27;fillColor=none;strokeColor=#666666;strokeWidth=2;spacingLeft=1;spacingRight=1;points=[[0.25,0,0],[0.5,0,0],[0.75,0,0],[1,0.25,0],[1,0.5,0],[1,0.75,0],[0.75,0.75,0],[0.5,0.75,0],[0.25,0.75,0],[0.25,0.75,0],[0.25,0.5,0],[0.25,0.25,0]];labelBackgroundColor=none;rounded=0;html=1;whiteSpace=wrap;fontFamily=Garamond;fontColor=#333333;container=0;" parent="1" vertex="1">
            <mxGeometry x="228" y="60" width="845" height="190" as="geometry" />
          </mxCell>
        </UserObject>
        <UserObject label="" tags="Background" id="9">
          <mxCell style="vsdxID=2;fillColor=none;gradientColor=none;strokeColor=none;points=[];labelBackgroundColor=none;rounded=0;html=1;whiteSpace=wrap;fontFamily=Garamond;" parent="1" vertex="1">
            <mxGeometry x="56" y="104" width="76" height="76" as="geometry" />
          </mxCell>
        </UserObject>
        <mxCell id="10" style="vsdxID=3;fillColor=#000000;gradientColor=none;fillOpacity=0;shape=stencil(vZbJUsMwDIafJsdqLMvrGcp7ZCBtM4Sm44bt7XFIHSqH+gS5OZJ++4u1jCu6Ox/qU1NJcR5C/9y8t0/DoaL7Ssr2eGhCO8RVRduK7nZ9aPahfz0+Td+neowcVy/927jDx6QzHoQdVVJ8ThaJIPDb8jAJuvZ4LUDwxAUakK4FdXiM3nARKBhdY3z4TBZ9OTLtKQD5lga8u4Rs6o/2vAn9UA9tf5z8YvJ1ddg3m3jcZtfVe+Y6vzfNaWH+FVDL+QoSoTagkCFql/+2EmBxLUbjQBFntApQccaYOckZNWj/f4y8MrQAr/nxlDJ9S2B53hUC6tsC6cDyH4wWLJwQ68hkAg9UiLegDSdSQO62QLDg2BtUwM+CCURh59gTRjEBisLlJ2cKthpsAWURropN72MTcxgrQBXovQaVlaIAVxLEEcBvnmzK3a8dgR6s4x0RJ1c69BJk/aJgJBhacbI4zCaLBYk5o8kmcLwq+6eMWLhHkQplZkQEoxmji42cFeNqo8/PI2zmE0Ce3+HcpYlPrIhHSzxehkbn7RNjnFoLMR7m1SLFjqe49BD4F8a4+HmU7Nqum9401/78ERNN0wOItl8=);strokeColor=none;strokeWidth=0;shadow=1;spacingTop=-3;spacingBottom=-3;spacingLeft=-3;spacingRight=-3;points=[];labelBackgroundColor=none;rounded=0;html=1;whiteSpace=wrap;fontFamily=Garamond;" parent="9" vertex="1">
          <mxGeometry y="2" width="76" height="70" as="geometry" />
        </mxCell>
        <mxCell id="11" style="vsdxID=4;fillColor=#cc6633;gradientColor=none;shape=stencil(fZDBDsIgEES/hitZWA5wrvU/mpQKEaGhaPXvBTkIJvY2u/tmkh2Cw2amVRMOW4rhqnc7J0PwRDi33uhoU1YER4LDEqK+xHD3c53XqZBF3cKjJDyrD4qDw6tOUlEpP5tzhZ31DSypkB0P/1kGfTRjlKuDaE4RewMcpAugjHW4ElSy1pDF9+nFOlc7a++/JeVVLRjHNw==);strokeColor=none;strokeWidth=0;spacingTop=-3;spacingBottom=-3;spacingLeft=-3;spacingRight=-3;points=[];labelBackgroundColor=none;rounded=0;html=1;whiteSpace=wrap;fontFamily=Garamond;" parent="9" vertex="1">
          <mxGeometry x="67" y="29" width="5" height="23" as="geometry" />
        </mxCell>
        <mxCell id="12" style="vsdxID=5;fillColor=#f6f8b0;gradientColor=#dab971;gradientDirection=north;shape=stencil(dZDNDgIhDISfpleCVKue1/U9NllWGhE2LP69vRBiBKO3afvNJFPAbjHDrEHJJQZ/1nceowE8gFLsjA4ckwLsAbvJB30K/urGMs9DJrO6+FtOeBSfzA4ln/V0LKBlV4Er2aJbKWj/H19vBO4awzvgJ57CqKGJBFLNJ/HpMLG15QX1/btzWpV/Yf8C);strokeColor=none;strokeWidth=0;spacingTop=-3;spacingBottom=-3;spacingLeft=-3;spacingRight=-3;points=[];labelBackgroundColor=none;rounded=0;html=1;whiteSpace=wrap;fontFamily=Garamond;" parent="9" vertex="1">
          <mxGeometry x="68" y="29" width="4" height="3" as="geometry" />
        </mxCell>
        <mxCell id="13" style="vsdxID=6;fillColor=#f6f8b0;gradientColor=#dab971;shape=stencil(hZDNDsIgEISfZq/NylqM51rfo0mpEBEaSv15e8GNsRgbb7s730xggJpJd6MCgVMM/qxupo8a6ABCGKdVMDFNQC1QM/igTsHPrud97DKZp4u/5oQ7+zA7BD54o321q1+XI8PWuAWc5FoWBlyHN1hmS6y2Yh1Psiyz3wE/8T/vTsPnx4Oxlgtb6t8NpRO3S+0T);strokeColor=none;strokeWidth=0;spacingTop=-3;spacingBottom=-3;spacingLeft=-3;spacingRight=-3;points=[];labelBackgroundColor=none;rounded=0;html=1;whiteSpace=wrap;fontFamily=Garamond;" parent="9" vertex="1">
          <mxGeometry y="28" width="76" height="43" as="geometry" />
        </mxCell>
        <mxCell id="14" style="vsdxID=7;fillColor=#cc6633;gradientColor=none;shape=stencil(rZJNDoMgEIVPw3aCgFDW1t7DRKykVgxif25fKTGVtpIuupsZvvcyQx6ixdhWg0IEj86ak7rq2rWI7hEhum+V1W6uEC0RLRpj1dGaqa9DP1Se9NXZXLzDLeiwVxB8Dx0DJp6DQ2A73a9YjoGziM8wTuM8wmUO+TYfr5IwTu8c3ycZcBHzGWTsf1t/4SXI3bZg+bMFpwJIwv8DJyD4Nv7DvXPxSkOjuy6Eaf3+np55FJJHywc=);strokeColor=#cc6633;strokeWidth=0;spacingTop=-3;spacingBottom=-3;spacingLeft=-3;spacingRight=-3;points=[];labelBackgroundColor=none;rounded=0;html=1;whiteSpace=wrap;fontFamily=Garamond;" parent="9" vertex="1">
          <mxGeometry y="46" width="76" height="27" as="geometry" />
        </mxCell>
        <mxCell id="15" style="vsdxID=8;fillColor=#FFFFFF;gradientColor=#a8dbf0;shape=stencil(dZDBDsIgEES/Zq9kyyYq51r/o0mpEBEailX/XpA0ggm3YebtZhmgflXjIoHjGry7yaeeggI6A+faKul1iApoAOpn5+XVu4ed8nsZE5nU3W1pwyvPETLiaYrjOzvIutPXuGTeaFvwWLFcMNFmDzGtd3eIbXwPd/gYL2nT8XAU9eElHMXvy7M2JjdW5v8VRSvXS8MH);strokeColor=#1e4182;strokeWidth=0;spacingTop=-3;spacingBottom=-3;spacingLeft=-3;spacingRight=-3;points=[];labelBackgroundColor=none;rounded=0;html=1;whiteSpace=wrap;fontFamily=Garamond;" parent="9" vertex="1">
          <mxGeometry x="30" y="43" width="22" height="13" as="geometry" />
        </mxCell>
        <mxCell id="16" style="vsdxID=9;fillColor=#dcf1fa;gradientColor=#5b9bd5;shape=stencil(vZPNbsMgDICfhmMs/gPnrnsP1JIELQsRYWv39iUi1eJI2227Gfsz+eQYIk7L4GZPOF1yim/+Fq55IOKFcB6mwaeQS0TEmYhTF5PvU/yYrvU8u5Vco/f4ud5wr31MgGnXLk6/aqZlUBOvlR/DhHktMc+BmZ8bKIKlBopgly6lmjaYGwWq1mnaWpi1IDfFDZOgFLqWMVBsQxp3D0uTYnY5xAlJjC71vimfbLrR9ai03Lyfd2n2i6SGVh0cDWiDFQVIgR0pGPlfjqbMmWNHTZ+jfzpaBpbjf2nA6r9zxJthLLTtYUR0j5fge227MI516/f145qXVH0i4vwA);strokeColor=none;strokeWidth=0;spacingTop=-3;spacingBottom=-3;spacingLeft=-3;spacingRight=-3;points=[];labelBackgroundColor=none;rounded=0;html=1;whiteSpace=wrap;fontFamily=Garamond;" parent="9" vertex="1">
          <mxGeometry x="44" y="18" width="19" height="28" as="geometry" />
        </mxCell>
        <mxCell id="17" style="vsdxID=10;fillColor=#f7f3e8;gradientColor=#a8dbf0;gradientDirection=east;shape=stencil(tVPbTsMwDP2aPNbKPc3zGP8RsbSNCE2VZqz8PSlZYaEICYm92cfH9rFlI3aYBzNZRPGcYni2F3dKA2IPiFI3Dja6lC3EjogduhBtH8N5PBV/MitztV7C61phKXlSA+ZrFsVvBSEYf/iPhW7iU47Fjd6ClIUer3wtgJECXUlcghRVTSE+kaUxi5ubGJJJLowlXjpib2Jvm9yx6bzpq9B8sXbawT9qFAykrjUqDoJWGnGljxHQ+n76vBtvVp6bkXrlLdD2z/Owah6loN2NxP91JPLrWWi1OwvFK4nbYW0KlQDO7qcwG19H3znvy8/cxr8/SYbKg7HjOw==);strokeColor=none;strokeWidth=0;spacingTop=-3;spacingBottom=-3;spacingLeft=-3;spacingRight=-3;points=[];labelBackgroundColor=none;rounded=0;html=1;whiteSpace=wrap;fontFamily=Garamond;" parent="9" vertex="1">
          <mxGeometry x="46" y="15" width="21" height="15" as="geometry" />
        </mxCell>
        <mxCell id="18" style="vsdxID=11;fillColor=#a8dbf0;gradientColor=#5b9bd5;shape=stencil(vZTNbsIwDMefpsdadpLm48zYe0QjhWhdi9Iy2NsvXYDhSuw0uLn+287Ple1Krsad34dK4Dil4T0c42baVfKlEiL2u5DilK1Kriu5aocUtmk49Jvyvfdz5Gx9DJ9zhVPJswTGzlkCv4qnAe1+HK8l3qe3LKZzPClz0TFdMhyI4rkUNeAUK0rZo88xtT/FsU7D5Kc49EXHonU+bUOdX6zbzm+ZNB5D2N+46T6jIwtOcEapLUhO6QTohlEa90RKYQTQgpLQARpGSerayzUIn8VIVijLEY3MRGgZYx4ZwxClBvzfH4l/jaQGaRYjaa9I5ygEJRljpkb5OMYu9jdrhvxpBUrdb0hrIOL9CA0NXzGCxi33lh43F9n4PSFt7LpygW715cnJrnKu5Pob);strokeColor=none;strokeWidth=0;spacingTop=-3;spacingBottom=-3;spacingLeft=-3;spacingRight=-3;points=[];labelBackgroundColor=none;rounded=0;html=1;whiteSpace=wrap;fontFamily=Garamond;" parent="9" vertex="1">
          <mxGeometry x="61" y="26" width="8" height="20" as="geometry" />
        </mxCell>
        <mxCell id="19" style="vsdxID=12;fillColor=#4974ba;gradientColor=none;shape=stencil(hZDdDoIwDIWfprekayPRa8T3IGG4xbmRMf/ens3GCEbj3Wn7naanwM1kulED4ZRiOOmb7ZMB3gOR9UZHm7ICboGbIUR9jOHie6nHrpBFncO1bLiLD4uD8CHVhipWz85BYGf9Ala4xvE3ulNVvV3BL/NX/M8ZWbwDDNY5yb+cfwbOLXkWtzM=);strokeColor=none;strokeWidth=0;spacingTop=-3;spacingBottom=-3;spacingLeft=-3;spacingRight=-3;points=[];labelBackgroundColor=none;rounded=0;html=1;whiteSpace=wrap;fontFamily=Garamond;" parent="9" vertex="1">
          <mxGeometry x="62" y="43" width="6" height="6" as="geometry" />
        </mxCell>
        <mxCell id="20" style="vsdxID=13;fillColor=#FFFFFF;gradientColor=#da8c36;shape=stencil(vZPdTsMwDIWfJpe1Eru/12O8R8TSNqI0lZux8vYkZGhLEdyxO9vHx/lkOYIO66gXI1Cunt2rudiTHwU9CUQ7j4atD5Ggo6BD79gM7M7zKeWLjp0xenPvccKWfB2BKqML5UeqYAcdfVWek0HzS1D5aqAgp36+GioJMcfb0BqB2mxo2367tkJvdi3Yee2tm5MskzZpHkwR3iv6SQ+ZtF6MWe7K6nfCEqGqd4gEVZMjQltnhI0ERY9CjEssf24xR6QGaswYlQKFj1zjnjGsscoY/zqff2EMwe2UeztN6Sfc6/vTD6X0bej4CQ==);strokeColor=none;strokeWidth=0;spacingTop=-3;spacingBottom=-3;spacingLeft=-3;spacingRight=-3;points=[];labelBackgroundColor=none;rounded=0;html=1;whiteSpace=wrap;fontFamily=Garamond;" parent="9" vertex="1">
          <mxGeometry x="44" y="45" width="9" height="7" as="geometry" />
        </mxCell>
        <mxCell id="21" style="vsdxID=14;fillColor=#5b9bd5;gradientColor=#4974ba;gradientDirection=east;shape=stencil(tVLLUsUgDP0als3wFFhfr//BeGnLWEuHorf+vSBVG3Vc6S6cc5KchBBxWke3eMLpmlN88NdwySMRt4TzMI8+hVwiIs5EnPqY/JDi03xp78VVZY0e43OtsLU8DvKmJnH60gAmgYs35K7ppzAjvZFIrxQwedS7dF/YtOuF+khIe4bmoBuya6QEY1FRy96L0q1zW1i7FLPLIc6Np42bXBp8Vxp2/eQGRK1X75dv8I8WGaUgFPbIqQBlkMsiQx61hvr8L4947daC0qj9LwMZC4LheZgpG8XzSKAG/zwHZf90IHb0WILPI+zDNLUbPvJfj7ZA7eDF+RU=);strokeColor=none;strokeWidth=0;spacingTop=-3;spacingBottom=-3;spacingLeft=-3;spacingRight=-3;points=[];labelBackgroundColor=none;rounded=0;html=1;whiteSpace=wrap;fontFamily=Garamond;" parent="9" vertex="1">
          <mxGeometry x="52" y="17" width="8" height="3" as="geometry" />
        </mxCell>
        <mxCell id="22" style="vsdxID=15;fillColor=#5b9bd5;gradientColor=none;shape=stencil(rVLLksIgEPwajqECAxrPrv4HpSShlg2pCWr8e4nECqRK9+JtHt0zzdAE9kOrek14OXh0v/pmzr4l8EM4N12r0fgQETgQ2NcOdYPu0p1j3qsJOUV/7jpNGCNvV1HJJhYv77FSPrNjBFvTJWCxxkpGJU/xCk+hizOeb+i2igScGVxSOZfGdN9rYrXoGQs1mqFA55U3rsvQVmGji7CtqK1qstZw07pPyuyDPkE5rPQBZSLTB5IKyDWK5Q3f0fjh5qzMDyQqKuR7+D//GYLFCbWxNhop7a+dE0rRdXB4AA==);strokeColor=none;strokeWidth=0;spacingTop=-3;spacingBottom=-3;spacingLeft=-3;spacingRight=-3;points=[];labelBackgroundColor=none;rounded=0;html=1;whiteSpace=wrap;fontFamily=Garamond;" parent="9" vertex="1">
          <mxGeometry x="52" y="41" width="10" height="11" as="geometry" />
        </mxCell>
        <mxCell id="23" style="vsdxID=16;fillColor=#5b9bd5;gradientColor=none;shape=stencil(fZDNDsIgEISfZq8E2aLpudb3aFIqRISG4k/fvuDaSI3xNrP7zSS7gM2ku1GB4FMM/qIepo8a8AhCGKdVMDEpwBawGXxQ5+Bvric/dpnM6urvueFJuYphzgg+k99x/vIngq1xBbwuV1jiO/2Trg9M1Bv+T/W2uNozKUs4ic8Fg7GWHlDuvy9OI/oWtgs=);strokeColor=none;strokeWidth=0;spacingTop=-3;spacingBottom=-3;spacingLeft=-3;spacingRight=-3;points=[];labelBackgroundColor=none;rounded=0;html=1;whiteSpace=wrap;fontFamily=Garamond;" parent="9" vertex="1">
          <mxGeometry x="39" y="33" width="8" height="10" as="geometry" />
        </mxCell>
        <mxCell id="24" style="vsdxID=17;fillColor=#FFFFFF;gradientColor=#da8c36;shape=stencil(zVPbDoIwDP2aPc6MDeIHIP7HIgMWJyNlCv69WzoUvL0YjW89Paft2dISkfeN7BThrHdg92rQpWuI2BDOddso0M5HRBRE5JUFVYM9tiXiTgZliA72FDqMWJcwFmo4OyPOEG5RK2HnKYjaLF0JFENUp+sV45gaF/VTu2v7kcpR9xSsk07bFtnIGQm1on4WrYysF1Q/KNXN0sln7p6+9Ufekkdz4t3X/Ze5F3vyFXvLDaU8W0yecBT74LbblTYGT2PO39+CT+EdieIC);strokeColor=#d75139;strokeWidth=0;spacingTop=-3;spacingBottom=-3;spacingLeft=-3;spacingRight=-3;points=[];labelBackgroundColor=none;rounded=0;html=1;whiteSpace=wrap;fontFamily=Garamond;" parent="9" vertex="1">
          <mxGeometry x="49" y="2" width="13" height="16" as="geometry" />
        </mxCell>
        <mxCell id="25" style="vsdxID=18;fillColor=#FFFFFF;gradientColor=none;shape=stencil(vVTBbsMgDP2aHGOBDYGcu+4/0EpTtCypSLp2fz8ykrXuFE2Ttt2M/R5+2MYFbYaDO/oCxTDG/tmfw248FPRQIIbu4GMYk1XQtqDNvo++if2p2+Xz0U3IyXrpX6cbLpknJgaKt3xCBKU+PI8Z7OJTisYZbGpTQ0WZEmeOTCwLZLJ3RqKG2rKr50SX0l3CUMZ+dGPoOxZrXWx8mVKW+9Y1LDScvT9+cc8i29DdvIgMoGSppQBB6wQJQjG8kqAZ/kcl42ApOLxCMGpdi7Yg8E48eytviFRQSd6OpIcs64XSIHhBagKkv+sH12iXYl4nhkBUXGL9CZoxtgJb/6pEuS4RKQ2BVFwlaW2WuVl0WguGj7VO/cT/Gu1vhykZ14++D22b98Rt/H4xJFdeKrR9Bw==);strokeColor=none;strokeWidth=0;spacingTop=-3;spacingBottom=-3;spacingLeft=-3;spacingRight=-3;points=[];labelBackgroundColor=none;rounded=0;html=1;whiteSpace=wrap;fontFamily=Garamond;" parent="9" vertex="1">
          <mxGeometry x="38" y="31" width="23" height="15" as="geometry" />
        </mxCell>
        <mxCell id="26" style="vsdxID=19;fillColor=none;gradientColor=none;shape=stencil(xZfbkpswDIafhstofJBl+3q7fQ+mSxKmNGQI7WbfvqIObmQmzGxnQu/AtuxP4pdkKvtyOdbnpjLqMg799+a9fRuPlf1SGdOejs3QjvxU2dfKvuz7oTkM/c/TW3o/19PK6elH/2va4ZrsTASrJyujPtKI1xD9n5GvyaBrT/cGATAIA6fBxHuDT59QGIjFQYPSKzgR3GL3QP+8u1xMAcgJA0II4THO0sBb8Cv8qAELJAv2fn09fOPJ4bZeR1Apdmq4GWgNlOI/b2odaJKbEtyidN3V1/ayG/qxHtv+lKZVmuvq4dDs+MDdvqsPYury3jTnxfAjREMLxKAFolEg3Y5ZRVsgKrAoESmPzEFEIKmsGIHsVojGzF8sB9GCk4jIUrESkcDTZlHELPaZMUAMApEUYBFFBOuehyjTKzrwslpxxpNe9wkXPnnhE+sgYJnkFLYKO5+mc35ncRAzhILTQ4yyVCOg34oTXe4UM6Xxc/WcGYMC7wWj3Uy/wWUlzoDO5GZ1ze2EpII4+hGfxygFzMc72VC44yE9dooL2aL6EijZIDgJjNyV17gnZmXBiLlKZUZuWVIZLuSv8yEO2oQPiyLAdaGobNxkvfmPMfRZhZnRgzaCkVNQS0ZWD21WfVmLWn5Cy1I0K9XXgLfSKa4YwiW+OAR5t0E2euLNQbrEl5sg+5nzq/mI3Mix6OSTtoPMSCX25FumeZ5Hn77j8sPf/4d923Xp9+N+vvzf4KH0r2JffwM=);strokeColor=#1e4182;strokeWidth=0;spacingTop=-3;spacingBottom=-3;spacingLeft=-3;spacingRight=-3;points=[];labelBackgroundColor=none;rounded=0;html=1;whiteSpace=wrap;fontFamily=Garamond;" parent="9" vertex="1">
          <mxGeometry x="38" y="2" width="30" height="49" as="geometry" />
        </mxCell>
        <mxCell id="27" style="vsdxID=20;fillColor=#1e4182;gradientColor=none;shape=stencil(jZNBcsMgDEVPw1YDEga0TtN7ZCZOzdS1M47TNrcPlEWtZKDdyfL7sr4sKdpdhsO5V6gv6zK/91/xuA6KXhRinIZ+iWuKFO0V7U7z0r8t83U6lufzIZM5+pg/c4XvoiMCzCLUt5LwDpz5ybwWfozThtcC7gJg91/YERDV4dRJF4QgGOBGK0nAJAUOvG0IAhhpNliwWBc4B2iEgBnY1QVG6ycHdZotBFneM6Bv98OyH9seEYN7cKzBNAykmXr5BV2H0QF7Aadf2C7+x67J3cx2n6YftnwKfhf7FMex3MX2/eMhpFQ5ItrfAQ==);strokeColor=#1e4182;strokeWidth=0;spacingTop=-3;spacingBottom=-3;spacingLeft=-3;spacingRight=-3;points=[];labelBackgroundColor=none;rounded=0;html=1;whiteSpace=wrap;fontFamily=Garamond;" parent="9" vertex="1">
          <mxGeometry x="30" y="31" width="23" height="25" as="geometry" />
        </mxCell>
        <mxCell id="28" style="vsdxID=21;fillColor=#f7f3e8;gradientColor=#a8dbf0;gradientDirection=east;shape=stencil(hZDRDoIwDEW/pq9LWWNgz4j/QcJwi3MjA1H/3s2GCCbi2217erdeoHo07aBB4jjFcNF3200G6AhSWm90tFNSQA1Q3YeozzHcfMf10GYyq2uYs8OD91QhUOUtiU/uFIjv+sS4s36F4wYtRXX4zVaipA2+47s8uqAKd63//jqJz8W9dY4DW8+/E0otTpeaFw==);strokeColor=none;strokeWidth=0;spacingTop=-3;spacingBottom=-3;spacingLeft=-3;spacingRight=-3;points=[];labelBackgroundColor=none;rounded=0;html=1;whiteSpace=wrap;fontFamily=Garamond;" parent="9" vertex="1">
          <mxGeometry x="20" y="22" width="18" height="10" as="geometry" />
        </mxCell>
        <mxCell id="29" style="vsdxID=22;fillColor=#FFFFFF;gradientColor=#5b9bd5;shape=stencil(vVNLEoIwDD1NlzCl5SNrxXt0pEBHpEyoAre3GFBQGVa6S/Jektc0IXzfFKKWhNHGgD7LVqWmIPxAGFNVIUEZaxGeEL7PNMgc9LVK0a/FwBysi74NFTrM8ygdchjt0Q+oS71H5Ih0ASeLwkj3AzeKMAH6qYLnRgxjEyt2492i7LNN54hONQ5oI4zSFaIjVgrIpWMbOlkp8gXUtFLWs/CGRP4pMeQLiWuv/pNA/4vAcGOGf53g7ssnBwuB65vzE4nWeO1wpsoST2COv++8DeG98OQO);strokeColor=#1e4182;strokeWidth=0;spacingTop=-3;spacingBottom=-3;spacingLeft=-3;spacingRight=-3;points=[];labelBackgroundColor=none;rounded=0;html=1;whiteSpace=wrap;fontFamily=Garamond;" parent="9" vertex="1">
          <mxGeometry x="20" y="49" width="16" height="7" as="geometry" />
        </mxCell>
        <mxCell id="30" style="vsdxID=23;fillColor=#FFFFFF;gradientColor=#5b9bd5;shape=stencil(fZDBDsIgEES/Zq8EWS3hXOt/NCkVIkJDqdq/L4QYwVhvM7tvNjCA7az6SQKjc/DuJp96CArwDIxpq6TXISrADrAdnZdX7xY7ZD/1iUzq7h7pwivnaEowupbukkGjbQFywiu0EeR03McPtL789j9hQYloKpwJwnE/8OfVUXz+OmpjclXl/rubOMq9YrcB);strokeColor=#1e4182;strokeWidth=0;spacingTop=-3;spacingBottom=-3;spacingLeft=-3;spacingRight=-3;points=[];labelBackgroundColor=none;rounded=0;html=1;whiteSpace=wrap;fontFamily=Garamond;" parent="9" vertex="1">
          <mxGeometry x="20" y="23" width="18" height="30" as="geometry" />
        </mxCell>
        <mxCell id="31" style="vsdxID=24;fillColor=#FFFFFF;gradientColor=#a8dbf0;shape=stencil(rVLLDoIwEPyaHmloVwk9+/iPRgo0VkqWKvj3FlsiYNSLt92d6UwnuwR2XS1bRXjaObRn1evC1QT2hHPd1Aq18xWBA4FdaVFVaK9NEfpWjsyxutjbqDCEdxlQJsZXPL2HSfrsjoEs8eQRjOQNZ1RAYGOkM5FTERWGucKkJ7zDNuKJHHSXoHXSadss2EZipRLvl5RGVguo65Vq38bxh0Y3sziQ0Zwv7Fn6NRCnLF8HEpSxRaBJY9L0JvDXROxzoh8L8sVrtaU2JlzGHF+fgh+FM4LDAw==);strokeColor=#1e4182;strokeWidth=0;spacingTop=-3;spacingBottom=-3;spacingLeft=-3;spacingRight=-3;points=[];labelBackgroundColor=none;rounded=0;html=1;whiteSpace=wrap;fontFamily=Garamond;" parent="9" vertex="1">
          <mxGeometry x="22" y="41" width="7" height="15" as="geometry" />
        </mxCell>
        <mxCell id="32" style="vsdxID=25;fillColor=#1e4182;gradientColor=none;shape=stencil(tVTLboQwDPyaHInygpDzdvsfUTdAVEpQyHbZv29oti0GUXooN8f2xDMjy4ifhkb3BjEyBO9ezc1eQoP4E2LMdo3xNsQI8TPip8p5U3t37S7p3eupc4re3Pv0w5hwucBCTChG7ilDPl/Pqbm13bxZ4VKC5kJhLrYBrFgCyhJTOQdo/xKr/gGgiuCcJYS/f+UoLh4cd1iTMdOjHTLvgg7WdaDWal+bLM7LqlbXoDTcjOlnaTpnCA1TCisFPSixKLcliRzLAioSBSYcCBKrX6NoSo8TteYo1hwp4Eg2VB/CD+4RHC0l5juG86WYHbcp+d8FIr/Tk2uv4YJ/81lJPoQhdPsPKx6Dn4tS2bZNB2leX16gmErXi58/AA==);strokeColor=#1e4182;strokeWidth=0;spacingTop=-3;spacingBottom=-3;spacingLeft=-3;spacingRight=-3;points=[];labelBackgroundColor=none;rounded=0;html=1;whiteSpace=wrap;fontFamily=Garamond;" parent="9" vertex="1">
          <mxGeometry x="20" y="42" width="16" height="16" as="geometry" />
        </mxCell>
        <mxCell id="33" style="vsdxID=26;fillColor=none;gradientColor=none;shape=stencil(vZbNkpswDMefhmM08odsfN5u34PpkoQpDRmHdnffvqIGGpmNp4cuNyLpL/9sWYor83Q7N9e20ngb4/C9fe1exnNlvlRad5dzG7uRvyrzXJmn4xDbUxx+Xl7S72szRU5fP4ZfU4a3pHMB0E8qje/JohWg+mP5mgR9d7kXKAhGCgiUuRc08Rt74yywYFM6jO+Lxc9LLjkRlEzpINRzyKF5626HOIzN2A2X5Mfk65t4ag+83OHYNyfhur227XVj/hgwgHWSkAxQLRCpzrdtEbzai1GhBm0lpFJM4CQl105LSgIKn0cp7wYhBJLL80H6osDLylsFih4LdA1ebpAtqrAC3ySXCQKYQrwHcpLIgqkfC1AEc3eYAn4WbAALmbkrnBUChYXDX5xLsCfwBZRNuC22fbDr/VsECLZAHwhsdhUR6pKAh4A8eeOX2n3YE5rzZZNFayArOsKHzYXR4MxefUt2BVpnC0/ckDO6bAbz1vx/ZVSPGacx4vPRshLNQbVZN7LG7HWIXEKT8eGmzmuXLny4Hx7RBm+eAmsvU94+HFPbvRC5njpD1Muf9r+8BD4FkT/+vkqOXd+nR829P3/FsCm9gMzzbw==);strokeColor=#c8c8c8;spacingTop=-3;spacingBottom=-3;spacingLeft=-3;spacingRight=-3;points=[];labelBackgroundColor=none;rounded=0;html=1;whiteSpace=wrap;fontFamily=Garamond;" parent="9" vertex="1">
          <mxGeometry y="2" width="76" height="70" as="geometry" />
        </mxCell>
        <UserObject label="" tags="Background" id="44">
          <mxCell style="vsdxID=65;fillColor=none;gradientColor=none;strokeColor=none;points=[];labelBackgroundColor=none;rounded=0;html=1;whiteSpace=wrap;fontFamily=Garamond;" parent="1" vertex="1">
            <mxGeometry x="911" y="276" width="76" height="43" as="geometry" />
          </mxCell>
        </UserObject>
        <mxCell id="45" style="vsdxID=60;fillColor=#ffff00;gradientColor=none;shape=stencil(nZFNDsIgEIVPw9ZMB7Xua71AT0AsChGhofh7emmfJk0XLrohM+99zCRvhKx6ozotmPoUw0U/bJuMkHvBbL3R0aZcCVkLWZ1C1OcYbr5F36lMMo2KbvGnGGgmFY+NfWtovCq5WPNuU+KlLSBMuYb7sP0JlmC9vtMI/QGos36C/sxF8B90IThbn4sxHyRnnUO8U3+eZ5ZwC1l/AA==);strokeColor=#000000;spacingTop=-1;spacingBottom=-1;spacingLeft=-1;spacingRight=-1;points=[[0.5,0,0],[0.5,0.5,0],[1,0.5,0]];labelBackgroundColor=none;rounded=1;html=1;whiteSpace=wrap;fontFamily=Garamond;" parent="44" vertex="1">
          <mxGeometry width="21" height="14" as="geometry" />
        </mxCell>
        <mxCell id="46" style="vsdxID=61;fillColor=#ffff00;gradientColor=none;shape=stencil(nZFNDsIgEIVPw9ZMB7Xua71AT0AsChGhofh7emmfJk0XLrohM+99zCRvhKx6ozotmPoUw0U/bJuMkHvBbL3R0aZcCVkLWZ1C1OcYbr5F36lMMo2KbvGnGGgmFY+NfWtovCq5WPNuU+KlLSBMuYb7sP0JlmC9vtMI/QGos36C/sxF8B90IThbn4sxHyRnnUO8U3+eZ5ZwC1l/AA==);strokeColor=#000000;spacingTop=-1;spacingBottom=-1;spacingLeft=-1;spacingRight=-1;points=[[0.5,0,0],[0.5,0.5,0],[1,0.5,0]];labelBackgroundColor=none;rounded=1;html=1;whiteSpace=wrap;fontFamily=Garamond;" parent="44" vertex="1">
          <mxGeometry x="54" width="21" height="14" as="geometry" />
        </mxCell>
        <mxCell id="47" style="vsdxID=62;fillColor=#ffff00;gradientColor=none;shape=stencil(nZFNDsIgEIVPw9ZMB7Xua71AT0AsChGhofh7emmfJk0XLrohM+99zCRvhKx6ozotmPoUw0U/bJuMkHvBbL3R0aZcCVkLWZ1C1OcYbr5F36lMMo2KbvGnGGgmFY+NfWtovCq5WPNuU+KlLSBMuYb7sP0JlmC9vtMI/QGos36C/sxF8B90IThbn4sxHyRnnUO8U3+eZ5ZwC1l/AA==);strokeColor=#000000;spacingTop=-1;spacingBottom=-1;spacingLeft=-1;spacingRight=-1;points=[[0.5,0,0],[0.5,0.5,0],[1,0.5,0]];labelBackgroundColor=none;rounded=1;html=1;whiteSpace=wrap;fontFamily=Garamond;" parent="44" vertex="1">
          <mxGeometry x="27" width="21" height="14" as="geometry" />
        </mxCell>
        <mxCell id="48" style="vsdxID=63;fillColor=#ffff00;gradientColor=none;shape=stencil(nZFNDsIgEIVPw9ZMB7Xua71AT0AsChGhofh7emmfJk0XLrohM+99zCRvhKx6ozotmPoUw0U/bJuMkHvBbL3R0aZcCVkLWZ1C1OcYbr5F36lMMo2KbvGnGGgmFY+NfWtovCq5WPNuU+KlLSBMuYb7sP0JlmC9vtMI/QGos36C/sxF8B90IThbn4sxHyRnnUO8U3+eZ5ZwC1l/AA==);strokeColor=#000000;spacingTop=-1;spacingBottom=-1;spacingLeft=-1;spacingRight=-1;points=[[0.5,0,0],[0.5,0.5,0],[1,0.5,0]];labelBackgroundColor=none;rounded=1;html=1;whiteSpace=wrap;fontFamily=Garamond;" parent="44" vertex="1">
          <mxGeometry y="29" width="21" height="14" as="geometry" />
        </mxCell>
        <mxCell id="49" style="vsdxID=64;fillColor=#ffff00;gradientColor=none;shape=stencil(nZFNDsIgEIVPw9ZMB7Xua71AT0AsChGhofh7emmfJk0XLrohM+99zCRvhKx6ozotmPoUw0U/bJuMkHvBbL3R0aZcCVkLWZ1C1OcYbr5F36lMMo2KbvGnGGgmFY+NfWtovCq5WPNuU+KlLSBMuYb7sP0JlmC9vtMI/QGos36C/sxF8B90IThbn4sxHyRnnUO8U3+eZ5ZwC1l/AA==);strokeColor=#000000;spacingTop=-1;spacingBottom=-1;spacingLeft=-1;spacingRight=-1;points=[[0.5,0,0],[0.5,0.5,0],[1,0.5,0]];labelBackgroundColor=none;rounded=1;html=1;whiteSpace=wrap;fontFamily=Garamond;" parent="44" vertex="1">
          <mxGeometry x="27" y="29" width="21" height="14" as="geometry" />
        </mxCell>
        <UserObject label="&lt;div style=&quot;font-size: 1px&quot;&gt;&lt;font style=&quot;font-size: 19.76px; color: rgb(0, 0, 0); direction: ltr; letter-spacing: 0px; line-height: 120%; opacity: 1;&quot;&gt;Component List&lt;br&gt;&lt;/font&gt;&lt;/div&gt;" tags="Background" id="57">
          <mxCell style="verticalAlign=middle;align=center;overflow=width;vsdxID=81;fillColor=none;gradientColor=none;shape=stencil(nZBLDoAgDERP0z3SIyjew0SURgSD+Lu9kMZoXLhwN9O+tukAlrNpJg1SzDH4QW/URgNYgZTkjA4UkwJUgGXng+6DX1zLfmoymdXo17xh5zmRJ6Q42BWCfc2oJfdAr+Yv+AP9Cb7OJ3H/2JG1HNGz/84klThPVCc=);strokeColor=none;points=[];labelBackgroundColor=none;rounded=0;html=1;whiteSpace=wrap;fontFamily=Garamond;" parent="1" vertex="1">
            <mxGeometry x="756" y="278" width="154" height="28" as="geometry" />
          </mxCell>
        </UserObject>
        <UserObject label="&lt;div style=&quot;font-size: 1px&quot;&gt;&lt;/div&gt;" tags="Network" id="58">
          <mxCell style="verticalAlign=middle;align=center;overflow=width;vsdxID=85;fillColor=#deebf6;gradientColor=none;shape=stencil(tVPRDoIwDPyaPULGJlGfEf9jkQGLcyPdFPx7h0NFyB6Q+HZtr9dc2iKamZo1HBFsLOgzb0Vha0QPiBChag7COoRojmhWauAV6KsqfNywntmji771Cp3vw30HwXcfJZt4u39mjp4shQqSd2lMkjGZwclVYSCnAxtm2i+5BIcEcRexTpgItGVWaPU1XjKoeOSGRaVk1SDlS6blvBmlcdjLdPjM+lI3Ibm/eHHgs9FSSOkP4l3/cd1rN7jCNV7qeuLYgenNu5T/F5o/AA==);strokeColor=#000000;points=[[0.5,0.15,0],[0.5,0.5,0],[1,0.5,0],[0.5,0.5,0],[0.5,0.5,0],[0.5,0,0]];labelBackgroundColor=none;rounded=0;html=1;whiteSpace=wrap;fontFamily=Garamond;" parent="1" vertex="1">
            <mxGeometry x="1159" y="124.17" width="88" height="75" as="geometry" />
          </mxCell>
        </UserObject>
        <UserObject label="&lt;div style=&quot;font-size: 1px&quot;&gt;&lt;font style=&quot;font-size: 19.76px; color: rgb(0, 0, 0); direction: ltr; letter-spacing: 0px; line-height: 120%; opacity: 1;&quot;&gt;Component &lt;br&gt;Repository&lt;br&gt;&lt;/font&gt;&lt;/div&gt;" tags="Background" id="59">
          <mxCell style="verticalAlign=middle;align=center;overflow=width;vsdxID=86;fillColor=#ffffff;gradientColor=none;shape=stencil(nZBLDoAgDERP0z3SIyjew0SURgSD+Lu9kMZoXLhwN9O+tukAlrNpJg1SzDH4QW/URgNYgZTkjA4UkwJUgGXng+6DX1zLfmoymdXo17xh5zmRJ6Q42BWCfc2oJfdAr+Yv+AP9Cb7OJ3H/2JG1HNGz/84klThPVCc=);strokeColor=none;strokeWidth=2;points=[];labelBackgroundColor=#FFFFFF;rounded=0;html=1;whiteSpace=wrap;fontFamily=Garamond;" parent="1" vertex="1">
            <mxGeometry x="1150.5" y="210" width="105" height="57" as="geometry" />
          </mxCell>
        </UserObject>
        <UserObject label="" tags="Background" id="64">
          <mxCell style="vsdxID=95;fillColor=none;gradientColor=none;strokeColor=none;points=[];labelBackgroundColor=none;rounded=0;html=1;whiteSpace=wrap;fontFamily=Garamond;" parent="1" vertex="1">
            <mxGeometry x="95.5" y="410" width="60" height="75" as="geometry" />
          </mxCell>
        </UserObject>
        <mxCell id="65" style="vsdxID=96;fillColor=#5b9bd5;gradientColor=none;shape=stencil(rVFbDsIgEDwNnyQU4glqvcfGblsilmZBS28vZGMsxg9j/JvZmX1kR5g2TLCg0CpE8hdcbR8nYY5CaztPSDZmJEwnTDt4wpH8be6ZL1CcBV39vUxI3KdKh1YbswPTEzuBzlmiVGmKau9zUKM+jlJJQrJBko8QrZ+rrQ5oRJnXyMHBWElhRVx25ebnw/5zVvPFWRm83jxY5zilvf4eSy5xpKZ7AA==);strokeColor=#939393;points=[[0.5,0,0],[0.5,0.5,0],[0,0.5,0],[0.5,1,0],[1,0.5,0],[0.15,0.85,0],[0.85,0.85,0],[0.85,0.15,0],[0.15,0.15,0]];labelBackgroundColor=none;rounded=0;html=1;whiteSpace=wrap;fontFamily=Garamond;" parent="64" vertex="1">
          <mxGeometry y="30" width="15" height="15" as="geometry" />
        </mxCell>
        <mxCell id="66" style="vsdxID=97;fillColor=#5b9bd5;gradientColor=none;shape=stencil(rVFbDsIgEDwNnyQU4glqvcfGblsilmZBS28vZGMsxg9j/JvZmX1kR5g2TLCg0CpE8hdcbR8nYY5CaztPSDZmJEwnTDt4wpH8be6ZL1CcBV39vUxI3KdKh1YbswPTEzuBzlmiVGmKau9zUKM+jlJJQrJBko8QrZ+rrQ5oRJnXyMHBWElhRVx25ebnw/5zVvPFWRm83jxY5zilvf4eSy5xpKZ7AA==);strokeColor=#939393;points=[[0.5,0,0],[0.5,0.5,0],[0,0.5,0],[0.5,1,0],[1,0.5,0],[0.15,0.85,0],[0.85,0.85,0],[0.85,0.15,0],[0.15,0.15,0]];labelBackgroundColor=none;rounded=0;html=1;whiteSpace=wrap;fontFamily=Garamond;" parent="64" vertex="1">
          <mxGeometry x="15" width="15" height="15" as="geometry" />
        </mxCell>
        <mxCell id="67" style="vsdxID=98;fillColor=#5b9bd5;gradientColor=none;shape=stencil(rVFbDsIgEDwNnyQU4glqvcfGblsilmZBS28vZGMsxg9j/JvZmX1kR5g2TLCg0CpE8hdcbR8nYY5CaztPSDZmJEwnTDt4wpH8be6ZL1CcBV39vUxI3KdKh1YbswPTEzuBzlmiVGmKau9zUKM+jlJJQrJBko8QrZ+rrQ5oRJnXyMHBWElhRVx25ebnw/5zVvPFWRm83jxY5zilvf4eSy5xpKZ7AA==);strokeColor=#939393;points=[[0.5,0,0],[0.5,0.5,0],[0,0.5,0],[0.5,1,0],[1,0.5,0],[0.15,0.85,0],[0.85,0.85,0],[0.85,0.15,0],[0.15,0.15,0]];labelBackgroundColor=none;rounded=0;html=1;whiteSpace=wrap;fontFamily=Garamond;" parent="64" vertex="1">
          <mxGeometry x="15" y="60" width="15" height="15" as="geometry" />
        </mxCell>
        <mxCell id="68" style="vsdxID=99;fillColor=#5b9bd5;gradientColor=none;shape=stencil(rVFbDsIgEDwNnyQU4glqvcfGblsilmZBS28vZGMsxg9j/JvZmX1kR5g2TLCg0CpE8hdcbR8nYY5CaztPSDZmJEwnTDt4wpH8be6ZL1CcBV39vUxI3KdKh1YbswPTEzuBzlmiVGmKau9zUKM+jlJJQrJBko8QrZ+rrQ5oRJnXyMHBWElhRVx25ebnw/5zVvPFWRm83jxY5zilvf4eSy5xpKZ7AA==);strokeColor=#939393;points=[[0.5,0,0],[0.5,0.5,0],[0,0.5,0],[0.5,1,0],[1,0.5,0],[0.15,0.85,0],[0.85,0.85,0],[0.85,0.15,0],[0.15,0.15,0]];labelBackgroundColor=none;rounded=0;html=1;whiteSpace=wrap;fontFamily=Garamond;" parent="64" vertex="1">
          <mxGeometry x="45" y="60" width="15" height="15" as="geometry" />
        </mxCell>
        <mxCell id="69" style="vsdxID=100;fillColor=#5b9bd5;gradientColor=none;shape=stencil(rVFbDsIgEDwNnyQU4glqvcfGblsilmZBS28vZGMsxg9j/JvZmX1kR5g2TLCg0CpE8hdcbR8nYY5CaztPSDZmJEwnTDt4wpH8be6ZL1CcBV39vUxI3KdKh1YbswPTEzuBzlmiVGmKau9zUKM+jlJJQrJBko8QrZ+rrQ5oRJnXyMHBWElhRVx25ebnw/5zVvPFWRm83jxY5zilvf4eSy5xpKZ7AA==);strokeColor=#939393;points=[[0.5,0,0],[0.5,0.5,0],[0,0.5,0],[0.5,1,0],[1,0.5,0],[0.15,0.85,0],[0.85,0.85,0],[0.85,0.15,0],[0.15,0.15,0]];labelBackgroundColor=none;rounded=0;html=1;whiteSpace=wrap;fontFamily=Garamond;" parent="64" vertex="1">
          <mxGeometry x="30" y="30" width="15" height="15" as="geometry" />
        </mxCell>
        <UserObject label="" tags="Connector" id="77">
          <mxCell style="vsdxID=104;edgeStyle=none;startArrow=none;endArrow=none;startSize=5;endSize=5;strokeColor=#5b9bd5;spacingTop=0;spacingBottom=0;spacingLeft=0;spacingRight=0;verticalAlign=middle;html=1;labelBackgroundColor=#ffffff;rounded=0;exitX=0.8;exitY=0.8;exitDx=0;exitDy=0;exitPerimeter=0;entryX=0.4666666666666667;entryY=-0.06666666666666667;entryDx=0;entryDy=0;entryPerimeter=0;fontFamily=Garamond;" parent="64" source="66" target="69" edge="1">
            <mxGeometry relative="1" as="geometry">
              <mxPoint x="7" y="-1" as="offset" />
              <Array as="points" />
            </mxGeometry>
          </mxCell>
        </UserObject>
        <UserObject label="" tags="Connector" id="78">
          <mxCell style="vsdxID=103;edgeStyle=none;startArrow=none;endArrow=none;startSize=5;endSize=5;strokeColor=#5b9bd5;spacingTop=0;spacingBottom=0;spacingLeft=0;spacingRight=0;verticalAlign=middle;html=1;labelBackgroundColor=#ffffff;rounded=0;exitX=0.13333333333333333;exitY=0.8;exitDx=0;exitDy=0;exitPerimeter=0;entryX=0.4666666666666667;entryY=-0.06666666666666667;entryDx=0;entryDy=0;entryPerimeter=0;fontFamily=Garamond;" parent="64" source="69" target="67" edge="1">
            <mxGeometry relative="1" as="geometry">
              <mxPoint x="-8" y="-1" as="offset" />
              <Array as="points" />
            </mxGeometry>
          </mxCell>
        </UserObject>
        <UserObject label="" tags="Connector" id="79">
          <mxCell style="vsdxID=102;edgeStyle=none;startArrow=none;endArrow=none;startSize=5;endSize=5;strokeColor=#5b9bd5;spacingTop=0;spacingBottom=0;spacingLeft=0;spacingRight=0;verticalAlign=middle;html=1;labelBackgroundColor=#ffffff;rounded=0;exitX=0.8;exitY=0.8;exitDx=0;exitDy=0;exitPerimeter=0;entryX=0.4666666666666667;entryY=-0.06666666666666667;entryDx=0;entryDy=0;entryPerimeter=0;fontFamily=Garamond;" parent="64" source="69" target="68" edge="1">
            <mxGeometry relative="1" as="geometry">
              <mxPoint x="7" y="-1" as="offset" />
              <Array as="points" />
            </mxGeometry>
          </mxCell>
        </UserObject>
        <UserObject label="" tags="Connector" id="80">
          <mxCell style="vsdxID=101;edgeStyle=none;startArrow=none;endArrow=none;startSize=5;endSize=5;strokeColor=#5b9bd5;spacingTop=0;spacingBottom=0;spacingLeft=0;spacingRight=0;verticalAlign=middle;html=1;labelBackgroundColor=#ffffff;rounded=0;exitX=0.13333333333333333;exitY=0.8;exitDx=0;exitDy=0;exitPerimeter=0;entryX=0.4666666666666667;entryY=-0.06666666666666667;entryDx=0;entryDy=0;entryPerimeter=0;fontFamily=Garamond;" parent="64" source="66" target="65" edge="1">
            <mxGeometry relative="1" as="geometry">
              <mxPoint x="-8" y="-1" as="offset" />
              <Array as="points" />
            </mxGeometry>
          </mxCell>
        </UserObject>
        <UserObject label="&lt;div style=&quot;font-size: 1px&quot;&gt;&lt;font style=&quot;font-size: 19.76px; color: rgb(0, 0, 0); direction: ltr; letter-spacing: 0px; line-height: 120%; opacity: 1;&quot;&gt;Compatibility Graph&lt;br&gt;&lt;/font&gt;&lt;/div&gt;" tags="Background" id="70">
          <mxCell style="verticalAlign=middle;align=center;overflow=width;vsdxID=107;fillColor=none;gradientColor=none;shape=stencil(nZBLDoAgDERP0z3SIyjew0SURgSD+Lu9kMZoXLhwN9O+tukAlrNpJg1SzDH4QW/URgNYgZTkjA4UkwJUgGXng+6DX1zLfmoymdXo17xh5zmRJ6Q42BWCfc2oJfdAr+Yv+AP9Cb7OJ3H/2JG1HNGz/84klThPVCc=);strokeColor=none;points=[];labelBackgroundColor=none;rounded=0;html=1;whiteSpace=wrap;fontFamily=Garamond;" parent="1" vertex="1">
            <mxGeometry x="40" y="492" width="171" height="28" as="geometry" />
          </mxCell>
        </UserObject>
        <UserObject label="&lt;div style=&quot;font-size: 18px;&quot;&gt;&lt;font style=&quot;font-size: 18px; color: rgb(0, 0, 0); direction: ltr; letter-spacing: 0px; line-height: 120%; opacity: 1;&quot;&gt;Interacts&lt;br style=&quot;font-size: 18px;&quot;&gt;&lt;/font&gt;&lt;/div&gt;" tags="Connector" id="73">
          <mxCell style="vsdxID=35;edgeStyle=none;startArrow=none;endArrow=block;startSize=5;endSize=5;strokeColor=#000000;spacingTop=0;spacingBottom=0;spacingLeft=0;spacingRight=0;verticalAlign=middle;html=1;labelBackgroundColor=#ffffff;rounded=0;align=center;exitX=0.9473684210526315;exitY=0.5789473684210527;exitDx=0;exitDy=0;exitPerimeter=0;entryX=0;entryY=0.5;entryDx=0;entryDy=0;entryPerimeter=0;fontFamily=Garamond;fontSize=18;" parent="1" source="9" edge="1">
            <mxGeometry x="-0.1186" y="-22" relative="1" as="geometry">
              <mxPoint x="-1" as="offset" />
              <Array as="points" />
              <mxPoint x="246" y="148" as="targetPoint" />
            </mxGeometry>
          </mxCell>
        </UserObject>
        <mxCell id="89" style="fontFamily=Garamond;" parent="1" vertex="1">
          <mxGeometry x="946" y="195" as="geometry" />
        </mxCell>
        <mxCell id="92" style="fontFamily=Garamond;" parent="1" vertex="1">
          <mxGeometry x="635" y="193" as="geometry" />
        </mxCell>
        <UserObject label="" tags="Container Connector Flowchart Network" id="99">
          <mxCell parent="1" vertex="1" visible="0">
            <mxGeometry as="geometry" />
          </mxCell>
        </UserObject>
        <mxCell id="B9KqtY4N5rbKtriSKZOe-100" style="edgeStyle=orthogonalEdgeStyle;rounded=0;orthogonalLoop=1;jettySize=auto;html=1;entryX=0.008;entryY=0.516;entryDx=0;entryDy=0;entryPerimeter=0;exitX=1;exitY=0.5;exitDx=0;exitDy=0;fontFamily=Garamond;startArrow=classic;startFill=1;" parent="1" source="ebsaDjovVqzyhI3LMSvK-115" target="58" edge="1">
          <mxGeometry relative="1" as="geometry">
            <mxPoint x="1050" y="150" as="sourcePoint" />
          </mxGeometry>
        </mxCell>
        <mxCell id="ebsaDjovVqzyhI3LMSvK-116" style="edgeStyle=orthogonalEdgeStyle;rounded=0;orthogonalLoop=1;jettySize=auto;html=1;entryX=0.488;entryY=0.004;entryDx=0;entryDy=0;entryPerimeter=0;fontFamily=Garamond;" parent="1" source="ebsaDjovVqzyhI3LMSvK-115" target="44" edge="1">
          <mxGeometry relative="1" as="geometry" />
        </mxCell>
        <mxCell id="ebsaDjovVqzyhI3LMSvK-117" value="&lt;font style=&quot;font-size: 18px;&quot;&gt;produces&lt;/font&gt;" style="edgeLabel;html=1;align=center;verticalAlign=middle;resizable=0;points=[];labelBackgroundColor=none;fontSize=18;fontFamily=Garamond;" parent="ebsaDjovVqzyhI3LMSvK-116" vertex="1" connectable="0">
          <mxGeometry x="0.2377" relative="1" as="geometry">
            <mxPoint x="35" y="-20" as="offset" />
          </mxGeometry>
        </mxCell>
        <mxCell id="3" style="vsdxID=28;fillColor=#f5f5f5;shape=stencil(UzV2Ls5ILEhVNTIoLinKz04tz0wpyVA1dlE1MsrMy0gtyiwBslSNXVWNndPyi1LTi/JL81Ig/IJEkEoQKze/DGRCBUSfAUiHkUElhGdoAOG7QZTmZOYhKTWlkVqYJFmKiXcDVVSSqRDNS0AGIj7SMnNyINGJLI8ef0AhSNwbuwIA);strokeColor=#666666;shadow=1;points=[[0.25,0,0],[0.5,0,0],[0.75,0,0],[1,0.25,0],[1,0.5,0],[1,0.75,0],[0.75,1,0],[0.5,1,0],[0.25,1,0],[0,0.75,0],[0,0.5,0],[0,0.25,0]];labelBackgroundColor=none;rounded=0;html=1;whiteSpace=wrap;fontFamily=Garamond;fontColor=#333333;" parent="1" vertex="1">
          <mxGeometry x="228" y="60" width="845" height="190" as="geometry" />
        </mxCell>
        <mxCell id="4" value="&lt;div style=&quot;font-size: 1px&quot;&gt;&lt;p style=&quot;text-align:center;margin-left:0;margin-right:0;margin-top:0px;margin-bottom:0px;text-indent:0;vertical-align:middle;direction:ltr;&quot;&gt;&lt;/p&gt;&lt;/div&gt;" style="text;vsdxID=28;fillColor=none;gradientColor=none;strokeColor=none;shadow=1;points=[[0.25,0,0],[0.5,0,0],[0.75,0,0],[1,0.25,0],[1,0.5,0],[1,0.75,0],[0.75,1,0],[0.5,1,0],[0.25,1,0],[0,0.75,0],[0,0.5,0],[0,0.25,0]];labelBackgroundColor=none;rounded=0;html=1;whiteSpace=wrap;verticalAlign=middle;align=center;overflow=width;;html=1;fontFamily=Garamond;" parent="3" vertex="1">
          <mxGeometry y="-0.21573705179282868" width="845.89" height="190.21573705179281" as="geometry" />
        </mxCell>
        <UserObject label="&lt;div style=&quot;&quot;&gt;&lt;p style=&quot;text-align: center; margin: 0px; text-indent: 0px; vertical-align: middle; direction: ltr;&quot;&gt;&lt;font style=&quot;color: rgb(0, 0, 0); direction: ltr; letter-spacing: 0px; line-height: 120%; opacity: 1; font-size: 19px;&quot;&gt;sends parameters to&lt;/font&gt;&lt;font style=&quot;font-size: 16px; color: rgb(147, 147, 147); direction: ltr; letter-spacing: 0px; line-height: 120%; opacity: 1;&quot;&gt;&lt;br style=&quot;font-size: 16px;&quot;&gt;&lt;/font&gt;&lt;/p&gt;&lt;/div&gt;" tags="Background" id="62">
          <mxCell style="verticalAlign=middle;align=center;overflow=width;vsdxID=92;fillColor=none;gradientColor=none;shape=stencil(nZBLDoAgDERP0z3SIyjew0SURgSD+Lu9kMZoXLhwN9O+tukAlrNpJg1SzDH4QW/URgNYgZTkjA4UkwJUgGXng+6DX1zLfmoymdXo17xh5zmRJ6Q42BWCfc2oJfdAr+Yv+AP9Cb7OJ3H/2JG1HNGz/84klThPVCc=);strokeColor=none;points=[];labelBackgroundColor=none;rounded=0;html=1;whiteSpace=wrap;fontFamily=Garamond;fontSize=16;" parent="3" vertex="1">
            <mxGeometry x="512" y="45.15695067264574" width="105" height="52.842152466367715" as="geometry" />
          </mxCell>
        </UserObject>
        <mxCell id="ebsaDjovVqzyhI3LMSvK-100" value="&lt;span style=&quot;font-size: 22.58px;&quot;&gt;Dialogue Interface&lt;/span&gt;" style="rounded=1;whiteSpace=wrap;html=1;fillColor=default;fontFamily=Garamond;" parent="3" vertex="1">
          <mxGeometry x="22" y="73.27354260089686" width="158" height="61.36233183856502" as="geometry" />
        </mxCell>
        <mxCell id="ebsaDjovVqzyhI3LMSvK-112" value="&lt;span style=&quot;font-size: 22.58px;&quot;&gt;NL Unit&lt;/span&gt;" style="rounded=1;whiteSpace=wrap;html=1;fontFamily=Garamond;" parent="3" vertex="1">
          <mxGeometry x="312" y="74.99461883408071" width="195" height="57.08520179372197" as="geometry" />
        </mxCell>
        <UserObject label="&lt;div style=&quot;&quot;&gt;&lt;font style=&quot;color: rgb(0, 0, 0); direction: ltr; letter-spacing: 0px; line-height: 120%; opacity: 1;&quot;&gt;&lt;font face=&quot;Garamond&quot; style=&quot;font-size: 19px;&quot;&gt;notifies&lt;/font&gt;&lt;br style=&quot;font-size: 16px;&quot;&gt;&lt;/font&gt;&lt;/div&gt;" tags="Connector" id="97">
          <mxCell style="vsdxID=37;edgeStyle=none;startArrow=none;endArrow=block;startSize=5;endSize=5;strokeColor=#000000;spacingTop=0;spacingBottom=0;spacingLeft=0;spacingRight=0;verticalAlign=middle;html=1;labelBackgroundColor=none;rounded=0;align=center;exitX=1;exitY=0.5;exitDx=0;exitDy=0;entryX=0;entryY=0.5;entryDx=0;entryDy=0;fontFamily=Garamond;fontSize=16;" parent="3" source="ebsaDjovVqzyhI3LMSvK-100" target="ebsaDjovVqzyhI3LMSvK-112" edge="1">
            <mxGeometry x="-0.0294" y="18" relative="1" as="geometry">
              <mxPoint as="offset" />
              <Array as="points" />
              <mxPoint x="189" y="103.09417040358744" as="sourcePoint" />
              <mxPoint x="271" y="103.09417040358744" as="targetPoint" />
            </mxGeometry>
          </mxCell>
        </UserObject>
        <mxCell id="ebsaDjovVqzyhI3LMSvK-115" value="&lt;span style=&quot;font-size: 22.58px;&quot;&gt;Component Retrieval Engine&lt;/span&gt;" style="rounded=1;whiteSpace=wrap;html=1;fontFamily=Garamond;" parent="3" vertex="1">
          <mxGeometry x="622" y="74.12556053811659" width="195" height="57.08520179372197" as="geometry" />
        </mxCell>
        <UserObject label="&lt;div style=&quot;font-size: 1px&quot;&gt;&lt;/div&gt;" tags="Connector" id="74">
          <mxCell style="vsdxID=38;edgeStyle=none;startArrow=none;endArrow=block;startSize=5;endSize=5;strokeColor=#000000;spacingTop=0;spacingBottom=0;spacingLeft=0;spacingRight=0;verticalAlign=middle;html=1;labelBackgroundColor=none;rounded=0;align=center;exitX=1;exitY=0.5;exitDx=0;exitDy=0;fontFamily=Garamond;entryX=0;entryY=0.5;entryDx=0;entryDy=0;" parent="3" source="ebsaDjovVqzyhI3LMSvK-112" target="ebsaDjovVqzyhI3LMSvK-115" edge="1">
            <mxGeometry relative="1" as="geometry">
              <mxPoint as="offset" />
              <Array as="points" />
              <mxPoint x="547" y="103.09417040358744" as="sourcePoint" />
              <mxPoint x="622" y="104.79820627802691" as="targetPoint" />
            </mxGeometry>
          </mxCell>
        </UserObject>
        <mxCell id="5" style="vsdxID=30;fillColor=none;gradientColor=none;gradientDirection=north;strokeColor=none;strokeWidth=2;spacingLeft=1;spacingRight=1;points=[[0.25,0,0],[0.5,0,0],[0.75,0,0],[1,0.25,0],[1,0.5,0],[1,0.75,0],[0.75,1,0],[0.5,1,0],[0.25,1,0],[0,0.75,0],[0,0.5,0],[0,0.25,0]];labelBackgroundColor=none;rounded=0;html=1;whiteSpace=wrap;fontFamily=Garamond;" parent="1" vertex="1">
          <mxGeometry x="228" y="65.55" width="845" height="34.45" as="geometry" />
        </mxCell>
        <mxCell id="6" value="&lt;div style=&quot;font-size: 1px&quot;&gt;&lt;/div&gt;" style="verticalAlign=middle;align=center;overflow=width;vsdxID=31;fillColor=none;gradientColor=none;strokeColor=none;points=[[0.25,0,0],[0.5,0,0],[0.75,0,0],[1,0.25,0],[1,0.5,0],[1,0.75,0],[0.75,1,0],[0.5,1,0],[0.25,1,0],[0,0.75,0],[0,0.5,0],[0,0.25,0]];labelBackgroundColor=none;rounded=0;html=1;whiteSpace=wrap;fontFamily=Garamond;" parent="5" vertex="1">
          <mxGeometry width="845" height="15.083667458923221" as="geometry" />
        </mxCell>
        <mxCell id="7" value="&lt;div style=&quot;font-size: 1px&quot;&gt;&lt;/div&gt;" style="text;vsdxID=30;fillColor=none;gradientColor=none;gradientDirection=north;strokeColor=none;strokeWidth=2;spacingLeft=1;spacingRight=1;points=[[0.25,0,0],[0.5,0,0],[0.75,0,0],[1,0.25,0],[1,0.5,0],[1,0.75,0],[0.75,1,0],[0.5,1,0],[0.25,1,0],[0,0.75,0],[0,0.5,0],[0,0.25,0]];labelBackgroundColor=none;rounded=0;html=1;whiteSpace=wrap;verticalAlign=middle;align=left;overflow=width;;html=1;fontFamily=Garamond;" parent="5" vertex="1">
          <mxGeometry y="-0.039693861734008476" width="845.89" height="15.12336132065723" as="geometry" />
        </mxCell>
        <mxCell id="ebsaDjovVqzyhI3LMSvK-101" value="&lt;font style=&quot;font-size: 20px;&quot;&gt;&lt;b&gt;DisCo&lt;/b&gt;&lt;/font&gt;" style="text;html=1;align=center;verticalAlign=middle;resizable=0;points=[];autosize=1;strokeColor=none;fillColor=none;fontFamily=Garamond;" parent="5" vertex="1">
          <mxGeometry x="22" y="0.003381988219489429" width="80" height="40" as="geometry" />
        </mxCell>
        <UserObject label="" tags="Container" id="ebsaDjovVqzyhI3LMSvK-102">
          <mxCell style="vsdxID=27;fillColor=#C8D7E3;gradientColor=none;strokeColor=none;strokeWidth=2;spacingLeft=1;spacingRight=1;points=[[0.25,0,0],[0.5,0,0],[0.75,0,0],[1,0.25,0],[1,0.5,0],[1,0.75,0],[0.75,0.75,0],[0.5,0.75,0],[0.25,0.75,0],[0.25,0.75,0],[0.25,0.5,0],[0.25,0.25,0]];labelBackgroundColor=none;rounded=0;html=1;whiteSpace=wrap;fontFamily=Garamond;container=0;" parent="1" vertex="1">
            <mxGeometry x="228" y="360" width="845" height="160" as="geometry" />
          </mxCell>
        </UserObject>
        <mxCell id="75" style="fontFamily=Garamond;" parent="1" vertex="1">
          <mxGeometry x="518" y="441" as="geometry" />
        </mxCell>
        <mxCell id="ebsaDjovVqzyhI3LMSvK-103" style="vsdxID=28;fillColor=#f5f5f5;shape=stencil(UzV2Ls5ILEhVNTIoLinKz04tz0wpyVA1dlE1MsrMy0gtyiwBslSNXVWNndPyi1LTi/JL81Ig/IJEkEoQKze/DGRCBUSfAUiHkUElhGdoAOG7QZTmZOYhKTWlkVqYJFmKiXcDVVSSqRDNS0AGIj7SMnNyINGJLI8ef0AhSNwbuwIA);strokeColor=#666666;shadow=1;points=[[0.25,0,0],[0.5,0,0],[0.75,0,0],[1,0.25,0],[1,0.5,0],[1,0.75,0],[0.75,1,0],[0.5,1,0],[0.25,1,0],[0,0.75,0],[0,0.5,0],[0,0.25,0]];labelBackgroundColor=none;rounded=0;html=1;whiteSpace=wrap;fontFamily=Garamond;fontColor=#333333;" parent="1" vertex="1">
          <mxGeometry x="228" y="360" width="845.89" height="160" as="geometry" />
        </mxCell>
        <mxCell id="ebsaDjovVqzyhI3LMSvK-104" value="&lt;div style=&quot;font-size: 1px&quot;&gt;&lt;p style=&quot;text-align:center;margin-left:0;margin-right:0;margin-top:0px;margin-bottom:0px;text-indent:0;vertical-align:middle;direction:ltr;&quot;&gt;&lt;/p&gt;&lt;/div&gt;" style="text;vsdxID=28;fillColor=none;gradientColor=none;strokeColor=none;shadow=1;points=[[0.25,0,0],[0.5,0,0],[0.75,0,0],[1,0.25,0],[1,0.5,0],[1,0.75,0],[0.75,1,0],[0.5,1,0],[0.25,1,0],[0,0.75,0],[0,0.5,0],[0,0.25,0]];labelBackgroundColor=none;rounded=0;html=1;whiteSpace=wrap;verticalAlign=middle;align=center;overflow=width;;html=1;fontFamily=Garamond;" parent="ebsaDjovVqzyhI3LMSvK-103" vertex="1">
          <mxGeometry y="34.08284023668639" width="845.89" height="131.59763313609466" as="geometry" />
        </mxCell>
        <mxCell id="ebsaDjovVqzyhI3LMSvK-119" value="&lt;span style=&quot;font-size: 22.58px;&quot;&gt;Compatibility Graph Generator&lt;/span&gt;" style="rounded=1;whiteSpace=wrap;html=1;fontFamily=Garamond;" parent="ebsaDjovVqzyhI3LMSvK-103" vertex="1">
          <mxGeometry x="342.5" y="50" width="188" height="73.08" as="geometry" />
        </mxCell>
        <mxCell id="ebsaDjovVqzyhI3LMSvK-122" value="&lt;font style=&quot;font-size: 20px;&quot;&gt;&lt;b style=&quot;&quot;&gt;Solution Designer&lt;/b&gt;&lt;/font&gt;" style="text;html=1;align=center;verticalAlign=middle;resizable=0;points=[];autosize=1;strokeColor=none;fillColor=none;fontFamily=Garamond;" parent="ebsaDjovVqzyhI3LMSvK-103" vertex="1">
          <mxGeometry x="15" width="180" height="40" as="geometry" />
        </mxCell>
        <mxCell id="ebsaDjovVqzyhI3LMSvK-121" style="edgeStyle=orthogonalEdgeStyle;rounded=0;orthogonalLoop=1;jettySize=auto;html=1;fontFamily=Garamond;" parent="1" source="49" edge="1">
          <mxGeometry relative="1" as="geometry">
            <mxPoint x="758" y="450" as="targetPoint" />
            <Array as="points">
              <mxPoint x="949" y="450" />
              <mxPoint x="758" y="450" />
            </Array>
          </mxGeometry>
        </mxCell>
        <UserObject label="&lt;div style=&quot;font-size: 18px;&quot;&gt;&lt;font style=&quot;font-size: 18px; color: rgb(0, 0, 0); direction: ltr; letter-spacing: 0px; line-height: 120%; opacity: 1;&quot;&gt;produces&lt;br style=&quot;font-size: 18px;&quot;&gt;&lt;/font&gt;&lt;/div&gt;" tags="Connector" id="88">
          <mxCell style="vsdxID=67;edgeStyle=none;startArrow=none;endArrow=block;startSize=5;endSize=5;strokeColor=#000000;spacingTop=0;spacingBottom=0;spacingLeft=0;spacingRight=0;verticalAlign=middle;html=1;labelBackgroundColor=none;rounded=0;align=center;exitX=0;exitY=0.5;exitDx=0;exitDy=0;entryX=1;entryY=0.5333333333333333;entryDx=0;entryDy=0;entryPerimeter=0;fontFamily=Garamond;fontSize=18;" parent="1" source="ebsaDjovVqzyhI3LMSvK-119" target="69" edge="1">
            <mxGeometry relative="1" as="geometry">
              <mxPoint x="3" y="20" as="offset" />
              <Array as="points" />
              <mxPoint x="758" y="441" as="sourcePoint" />
            </mxGeometry>
          </mxCell>
        </UserObject>
      </root>
    </mxGraphModel>
  </diagram>
</mxfile>
